<?xml version="1.0" standalone="no"?><!DOCTYPE svg PUBLIC "-//W3C//DTD SVG 1.1//EN" "http://www.w3.org/Graphics/SVG/1.1/DTD/svg11.dtd"><svg height="400" node-id="1" sillyvg="true" template-height="400" template-width="400" version="1.1" viewBox="0 0 400 400" width="400" xmlns="http://www.w3.org/2000/svg" xmlns:xlink="http://www.w3.org/1999/xlink"><defs node-id="83"><linearGradient gradientUnits="objectBoundingBox" id="未命名的渐变_33" node-id="5" spreadMethod="pad" x1="211.26" x2="196.64" y1="135.09" y2="382.5"><stop offset="0" stop-color="#f0eff2"></stop><stop offset="0.01" stop-color="#edecef" stop-opacity="0.95"></stop><stop offset="0.08" stop-color="#e1e0e4" stop-opacity="0.75"></stop><stop offset="0.16" stop-color="#d7d6da" stop-opacity="0.57"></stop><stop offset="0.23" stop-color="#cecdd1" stop-opacity="0.42"></stop><stop offset="0.32" stop-color="#c6c5ca" stop-opacity="0.29"></stop><stop offset="0.4" stop-color="#c0bfc4" stop-opacity="0.18"></stop><stop offset="0.5" stop-color="#bbbac0" stop-opacity="0.1"></stop><stop offset="0.62" stop-color="#b8b7bc" stop-opacity="0.04"></stop><stop offset="0.75" stop-color="#b6b5bb" stop-opacity="0.01"></stop><stop offset="1" stop-color="#b5b4ba" stop-opacity="0"></stop></linearGradient><linearGradient gradientUnits="objectBoundingBox" id="未命名的渐变_37" node-id="17" spreadMethod="pad" x1="305.95" x2="306.42" y1="144.31" y2="158.2"><stop offset="0" stop-color="#f0eff2"></stop><stop offset="1" stop-color="#c6c5cc" stop-opacity="0"></stop></linearGradient><linearGradient gradientUnits="objectBoundingBox" id="未命名的渐变_37-2" node-id="20" spreadMethod="pad" x1="319.37" x2="319.55" y1="155.07" y2="160.67"><stop offset="0" stop-color="#f0eff2"></stop><stop offset="1" stop-color="#c6c5cc" stop-opacity="0"></stop></linearGradient><linearGradient gradientUnits="objectBoundingBox" id="未命名的渐变_37-3" node-id="21" spreadMethod="pad" x1="294.87" x2="295.03" y1="155.4" y2="160.04"><stop offset="0" stop-color="#f0eff2"></stop><stop offset="1" stop-color="#c6c5cc" stop-opacity="0"></stop></linearGradient><linearGradient gradientUnits="objectBoundingBox" id="未命名的渐变_37-4" node-id="22" spreadMethod="pad" x1="96.12" x2="96.99" y1="121.27" y2="147.21"><stop offset="0" stop-color="#f0eff2"></stop><stop offset="1" stop-color="#c6c5cc" stop-opacity="0"></stop></linearGradient><linearGradient gradientUnits="objectBoundingBox" id="未命名的渐变_37-5" node-id="23" spreadMethod="pad" x1="113.62" x2="113.97" y1="139.21" y2="149.67"><stop offset="0" stop-color="#f0eff2"></stop><stop offset="1" stop-color="#c6c5cc" stop-opacity="0"></stop></linearGradient><linearGradient gradientUnits="objectBoundingBox" id="未命名的渐变_13" node-id="24" spreadMethod="pad" x1="241.01" x2="225.91" y1="-3.4" y2="101.29"><stop offset="0" stop-color="#f0eff2"></stop><stop offset="1" stop-color="#c6c5cc"></stop></linearGradient><linearGradient gradientUnits="objectBoundingBox" id="未命名的渐变_13-2" node-id="27" spreadMethod="pad" x1="234.78" x2="226.39" y1="73.41" y2="182.46"><stop offset="0" stop-color="#f0eff2"></stop><stop offset="1" stop-color="#c6c5cc"></stop></linearGradient><linearGradient gradientUnits="objectBoundingBox" id="未命名的渐变_13-3" node-id="28" spreadMethod="pad" x1="126.35" x2="160.91" y1="87.77" y2="125.69"><stop offset="0" stop-color="#f0eff2"></stop><stop offset="1" stop-color="#c6c5cc"></stop></linearGradient><linearGradient gradientUnits="objectBoundingBox" id="未命名的渐变_13-4" node-id="29" spreadMethod="pad" x1="57.45" x2="181.94" y1="128.73" y2="145.17"><stop offset="0" stop-color="#f0eff2"></stop><stop offset="1" stop-color="#c6c5cc"></stop></linearGradient><linearGradient gradientUnits="objectBoundingBox" id="未命名的渐变_13-5" node-id="30" spreadMethod="pad" x1="322.97" x2="191.43" y1="71.25" y2="129.97"><stop offset="0" stop-color="#f0eff2"></stop><stop offset="1" stop-color="#c6c5cc"></stop></linearGradient><linearGradient gradientUnits="objectBoundingBox" id="未命名的渐变_13-6" node-id="31" spreadMethod="pad" x1="162.29" x2="136.79" y1="55.39" y2="138.27"><stop offset="0" stop-color="#f0eff2"></stop><stop offset="1" stop-color="#c6c5cc"></stop></linearGradient><linearGradient gradientUnits="objectBoundingBox" id="未命名的渐变_13-7" node-id="32" spreadMethod="pad" x1="281.45" x2="252.93" y1="164.14" y2="193.25"><stop offset="0" stop-color="#f0eff2"></stop><stop offset="1" stop-color="#c6c5cc"></stop></linearGradient><linearGradient gradientUnits="objectBoundingBox" id="未命名的渐变_13-8" node-id="33" spreadMethod="pad" x1="269.24" x2="268.71" y1="180.88" y2="182.39"><stop offset="0" stop-color="#f0eff2"></stop><stop offset="1" stop-color="#c6c5cc"></stop></linearGradient><linearGradient gradientUnits="objectBoundingBox" id="未命名的渐变_13-9" node-id="34" spreadMethod="pad" x1="268.36" x2="267.15" y1="191.35" y2="191.12"><stop offset="0" stop-color="#f0eff2"></stop><stop offset="1" stop-color="#c6c5cc"></stop></linearGradient><linearGradient gradientUnits="objectBoundingBox" id="未命名的渐变_13-10" node-id="35" spreadMethod="pad" x1="261.76" x2="244.2" y1="182.83" y2="200.76"><stop offset="0" stop-color="#f0eff2"></stop><stop offset="1" stop-color="#c6c5cc"></stop></linearGradient><linearGradient gradientUnits="objectBoundingBox" id="未命名的渐变_13-11" node-id="36" spreadMethod="pad" x1="254.25" x2="253.92" y1="193.14" y2="194.07"><stop offset="0" stop-color="#f0eff2"></stop><stop offset="1" stop-color="#c6c5cc"></stop></linearGradient><linearGradient gradientUnits="objectBoundingBox" id="未命名的渐变_13-12" node-id="37" spreadMethod="pad" x1="253.7" x2="252.96" y1="199.59" y2="199.45"><stop offset="0" stop-color="#f0eff2"></stop><stop offset="1" stop-color="#c6c5cc"></stop></linearGradient><linearGradient gradientUnits="objectBoundingBox" id="未命名的渐变_13-13" node-id="38" spreadMethod="pad" x1="355.29" x2="337.73" y1="240.7" y2="258.63"><stop offset="0" stop-color="#f0eff2"></stop><stop offset="1" stop-color="#c6c5cc"></stop></linearGradient><linearGradient gradientUnits="objectBoundingBox" id="未命名的渐变_13-14" node-id="39" spreadMethod="pad" x1="347.77" x2="347.44" y1="251.02" y2="251.94"><stop offset="0" stop-color="#f0eff2"></stop><stop offset="1" stop-color="#c6c5cc"></stop></linearGradient><linearGradient gradientUnits="objectBoundingBox" id="未命名的渐变_13-15" node-id="40" spreadMethod="pad" x1="347.23" x2="346.48" y1="257.46" y2="257.32"><stop offset="0" stop-color="#f0eff2"></stop><stop offset="1" stop-color="#c6c5cc"></stop></linearGradient><linearGradient gradientUnits="objectBoundingBox" id="未命名的渐变_13-16" node-id="41" spreadMethod="pad" x1="74.5" x2="60.76" y1="206.36" y2="220.39"><stop offset="0" stop-color="#f0eff2"></stop><stop offset="1" stop-color="#c6c5cc"></stop></linearGradient><linearGradient gradientUnits="objectBoundingBox" id="未命名的渐变_13-17" node-id="42" spreadMethod="pad" x1="68.62" x2="68.36" y1="214.43" y2="215.16"><stop offset="0" stop-color="#f0eff2"></stop><stop offset="1" stop-color="#c6c5cc"></stop></linearGradient><linearGradient gradientUnits="objectBoundingBox" id="未命名的渐变_13-18" node-id="43" spreadMethod="pad" x1="68.19" x2="67.61" y1="219.47" y2="219.36"><stop offset="0" stop-color="#f0eff2"></stop><stop offset="1" stop-color="#c6c5cc"></stop></linearGradient><linearGradient gradientUnits="objectBoundingBox" id="未命名的渐变_13-19" node-id="44" spreadMethod="pad" x1="64.97" x2="44.71" y1="192.07" y2="212.76"><stop offset="0" stop-color="#f0eff2"></stop><stop offset="1" stop-color="#c6c5cc"></stop></linearGradient><linearGradient gradientUnits="objectBoundingBox" id="未命名的渐变_13-20" node-id="45" spreadMethod="pad" x1="56.3" x2="55.92" y1="203.97" y2="205.04"><stop offset="0" stop-color="#f0eff2"></stop><stop offset="1" stop-color="#c6c5cc"></stop></linearGradient><linearGradient gradientUnits="objectBoundingBox" id="未命名的渐变_13-21" node-id="46" spreadMethod="pad" x1="55.67" x2="54.81" y1="211.4" y2="211.24"><stop offset="0" stop-color="#f0eff2"></stop><stop offset="1" stop-color="#c6c5cc"></stop></linearGradient></defs><path d="M 2.40 326.10 L 2.70 317.50 L 3.40 309.00 L 4.60 300.70 L 6.10 292.50 L 8.00 284.50 L 11.00 274.50 L 14.50 264.90 L 18.50 255.40 L 23.10 246.30 L 28.30 237.40 L 33.90 228.80 L 40.00 220.60 L 46.60 212.60 L 53.60 205.00 L 61.00 197.80 L 68.80 191.00 L 77.10 184.60 L 85.70 178.60 L 94.70 173.00 L 104.00 167.90 L 113.60 163.20 L 123.50 159.00 L 133.70 155.40 L 144.20 152.20 L 155.00 149.60 L 165.90 147.50 L 177.00 146.00 L 188.40 145.10 L 200.00 144.80 L 211.70 145.10 L 223.20 146.00 L 234.40 147.50 L 245.30 149.60 L 256.20 152.30 L 266.70 155.50 L 277.00 159.20 L 286.90 163.40 L 296.60 168.20 L 306.00 173.40 L 315.00 179.00 L 323.60 185.10 L 331.90 191.60 L 339.80 198.60 L 347.20 205.80 L 354.20 213.50 L 360.80 221.60 L 366.90 229.90 L 372.40 238.60 L 377.50 247.60 L 382.10 256.90 L 386.10 266.40 L 389.50 276.10 L 392.40 286.20 L 394.30 294.30 L 395.70 302.60 L 396.80 311.00 L 397.40 319.60 L 397.60 328.30" fill="url(#未命名的渐变_33)" fill-rule="nonzero" node-id="266" stroke="none" target-height="183.49998" target-width="395.2" target-x="2.4" target-y="144.8"></path><g node-id="338"><path d="M 237.80 256.50 L 237.70 258.80 L 236.40 263.30 L 233.90 267.40 L 232.20 269.20 L 228.20 272.00 L 225.90 273.10 L 221.10 274.30 L 218.50 274.40 L 215.90 274.30 L 211.10 273.10 L 208.80 272.00 L 204.80 269.20 L 203.10 267.40 L 200.60 263.30 L 199.30 258.80 L 199.10 256.50 L 199.30 254.10 L 200.60 249.60 L 203.10 245.60 L 204.80 243.80 L 208.80 240.90 L 211.10 239.90 L 215.90 238.60 L 218.50 238.50 L 221.10 238.60 L 225.90 239.90 L 228.20 240.90 L 232.20 243.80 L 233.90 245.60 L 236.40 249.60 L 237.70 254.10 L 237.80 256.50 Z" fill="#c4c4c4" fill-opacity="0.6" fill-rule="nonzero" group-id="1" node-id="270" stroke="none" target-height="35.899994" target-width="38.699997" target-x="199.1" target-y="238.5"></path></g><path d="M 282.20 175.80 L 281.90 178.00 L 281.30 180.00 L 280.20 181.90 L 277.00 185.00 L 272.60 187.10 L 267.40 187.90 L 262.20 187.10 L 257.90 185.00 L 254.70 181.90 L 253.60 180.00 L 252.90 178.00 L 252.70 175.80 L 252.90 173.60 L 253.60 171.60 L 254.70 169.70 L 256.10 168.00 L 260.00 165.30 L 262.20 164.40 L 267.40 163.70 L 272.60 164.40 L 277.00 166.50 L 280.20 169.70 L 281.30 171.60 L 281.90 173.60 L 282.20 175.80 Z" fill="#cecece" fill-rule="nonzero" node-id="273" stroke="none" target-height="24.199997" target-width="29.500015" target-x="252.7" target-y="163.7"></path><path d="M 174.80 159.50 L 179.10 158.80 L 181.00 158.00 L 184.10 155.70 L 186.20 152.50 L 186.80 150.70 L 187.00 148.80 L 186.30 145.20 L 170.50 146.80 L 162.70 148.10 L 162.80 150.70 L 163.40 152.50 L 165.50 155.70 L 168.70 158.00 L 170.50 158.80 L 174.80 159.50 Z" fill="#cecece" fill-rule="nonzero" node-id="275" stroke="none" target-height="14.300003" target-width="24.300003" target-x="162.7" target-y="145.2"></path><g node-id="339"><path d="M 103.20 199.30 L 107.20 199.10 L 110.90 198.40 L 114.40 197.20 L 117.80 195.70 L 120.80 193.80 L 123.60 191.50 L 126.00 188.90 L 128.10 186.10 L 129.70 183.00 L 131.00 179.70 L 131.70 176.30 L 132.00 172.60 L 131.70 168.70 L 130.70 164.80 L 129.20 161.20 L 127.10 157.80 L 118.30 161.10 L 109.70 164.90 L 101.20 169.00 L 92.90 173.50 L 84.90 178.40 L 77.10 183.70 L 78.80 186.60 L 80.80 189.40 L 83.30 191.80 L 86.00 194.00 L 89.00 195.80 L 92.30 197.30 L 95.70 198.40 L 99.40 199.10 L 103.20 199.30 Z" fill="#cecece" fill-opacity="0.3" fill-rule="nonzero" group-id="2" node-id="279" stroke="none" target-height="41.5" target-width="54.9" target-x="77.1" target-y="157.8"></path></g><path d="M 113.80 256.50 L 113.60 258.90 L 112.90 261.10 L 111.90 263.20 L 108.80 266.60 L 104.50 268.90 L 102.10 269.50 L 99.50 269.80 L 96.90 269.50 L 94.50 268.90 L 90.30 266.60 L 87.10 263.20 L 86.10 261.10 L 85.40 258.90 L 85.20 256.50 L 85.40 254.00 L 86.10 251.80 L 87.10 249.70 L 90.30 246.30 L 94.50 244.00 L 96.90 243.40 L 99.50 243.20 L 102.10 243.40 L 104.50 244.00 L 108.80 246.30 L 111.90 249.70 L 112.90 251.80 L 113.60 254.00 L 113.80 256.50 Z" fill="#eaeaea" fill-rule="nonzero" node-id="282" stroke="none" target-height="26.59999" target-width="28.600006" target-x="85.2" target-y="243.2"></path><path d="M 299.80 274.80 L 299.50 276.90 L 298.60 278.80 L 297.30 280.40 L 295.60 281.70 L 293.50 282.50 L 291.20 282.70 L 288.90 282.40 L 286.90 281.70 L 285.10 280.40 L 283.80 278.80 L 282.90 276.90 L 282.60 274.80 L 282.90 272.70 L 283.80 270.80 L 285.10 269.20 L 286.90 267.90 L 288.90 267.10 L 291.20 266.80 L 293.50 267.10 L 295.60 267.90 L 297.30 269.20 L 298.60 270.80 L 299.50 272.70 L 299.80 274.80 Z" fill="#eaeaea" fill-rule="nonzero" node-id="284" stroke="none" target-height="15.900024" target-width="17.199982" target-x="282.6" target-y="266.8"></path><path d="M 311.70 150.70 L 310.50 150.90 L 310.40 149.30 L 309.90 148.10 L 308.00 146.10 L 305.40 145.40 L 302.70 146.10 L 300.80 148.10 L 300.20 150.70 L 298.80 151.10 L 297.50 152.00 L 296.60 153.10 L 296.00 154.50 L 295.80 156.00 L 296.10 157.50 L 296.80 158.80 L 297.90 159.90 L 299.20 160.60 L 300.60 160.90 L 302.10 160.80 L 303.50 160.20 L 306.10 160.70 L 308.50 159.80 L 310.00 160.60 L 311.50 160.90 L 313.10 160.70 L 314.60 160.00 L 315.80 158.90 L 316.50 157.50 L 316.80 155.90 L 316.60 154.30 L 315.90 152.80 L 314.70 151.70 L 313.30 150.90 L 311.70 150.70 Z" fill="url(#未命名的渐变_37)" fill-rule="nonzero" node-id="286" stroke="none" target-height="15.5" target-width="21" target-x="295.8" target-y="145.4"></path><path d="M 321.70 157.70 L 321.20 157.70 L 321.00 156.90 L 319.90 155.90 L 318.30 155.90 L 317.30 156.90 L 317.10 157.70 L 315.60 158.40 L 315.20 159.90 L 315.40 160.60 L 316.50 161.70 L 319.30 161.70 L 320.50 161.30 L 321.70 161.80 L 322.50 161.60 L 323.50 160.50 L 323.50 158.90 L 322.50 157.80 L 321.70 157.60 Z" fill="url(#未命名的渐变_37-2)" fill-rule="nonzero" node-id="288" stroke="none" target-height="5.900009" target-width="8.299988" target-x="315.2" target-y="155.9"></path><path d="M 296.80 157.50 L 296.40 157.60 L 296.20 156.90 L 295.30 156.00 L 294.00 156.00 L 293.10 156.90 L 293.00 157.50 L 292.00 158.00 L 291.50 158.80 L 291.60 159.80 L 292.20 160.60 L 293.10 160.90 L 295.80 160.60 L 296.80 160.90 L 297.80 160.60 L 298.50 159.80 L 298.50 158.70 L 297.90 157.90 L 296.80 157.50 Z" fill="url(#未命名的渐变_37-3)" fill-rule="nonzero" node-id="290" stroke="none" target-height="4.899994" target-width="7" target-x="291.5" target-y="156"></path><path d="M 106.90 133.20 L 104.60 133.50 L 104.50 131.50 L 103.40 128.30 L 101.30 125.70 L 99.90 124.70 L 96.70 123.50 L 93.30 123.50 L 91.70 123.90 L 88.70 125.70 L 86.60 128.30 L 85.50 131.50 L 85.40 133.30 L 81.90 134.50 L 79.10 137.00 L 77.50 140.40 L 77.20 142.30 L 77.70 145.90 L 79.50 149.10 L 81.00 150.40 L 84.30 152.10 L 88.00 152.30 L 91.60 151.10 L 93.90 151.80 L 96.40 151.90 L 98.70 151.40 L 101.00 150.30 L 102.70 151.40 L 104.60 152.10 L 106.60 152.40 L 108.60 152.20 L 110.50 151.70 L 112.30 150.70 L 113.90 149.30 L 115.10 147.80 L 115.90 146.00 L 116.40 144.00 L 116.50 142.00 L 116.10 140.00 L 115.20 138.10 L 114.10 136.50 L 112.60 135.10 L 110.90 134.10 L 109.00 133.50 L 107.00 133.20 Z" fill="url(#未命名的渐变_37-4)" fill-rule="nonzero" node-id="292" stroke="none" target-height="28.899994" target-width="39.300003" target-x="77.2" target-y="123.5"></path><path d="M 118.00 144.00 L 116.90 144.10 L 116.70 142.50 L 115.90 141.30 L 114.70 140.40 L 113.10 140.10 L 111.60 140.40 L 110.40 141.30 L 109.60 142.50 L 109.30 144.00 L 107.90 144.50 L 106.80 145.40 L 106.20 146.60 L 106.00 148.10 L 106.40 149.50 L 107.20 150.60 L 108.40 151.40 L 109.80 151.70 L 111.80 151.20 L 113.40 151.50 L 115.60 150.80 L 117.90 151.70 L 120.20 151.10 L 121.70 149.10 L 121.70 146.70 L 120.30 144.70 L 118.00 144.00 Z" fill="url(#未命名的渐变_37-5)" fill-rule="nonzero" node-id="294" stroke="none" target-height="11.599991" target-width="15.699997" target-x="106" target-y="140.1"></path><path d="M 265.50 169.50 L 180.80 154.20 L 180.80 71.70 L 265.50 82.80 L 265.50 169.50 Z" fill="url(#未命名的渐变_13)" fill-rule="nonzero" node-id="296" stroke="none" target-height="97.8" target-width="84.7" target-x="180.8" target-y="71.7"></path><path d="M 265.50 179.20 L 193.70 197.70 L 193.70 102.60 L 265.50 82.80 L 265.50 179.20 Z" fill="url(#未命名的渐变_13-2)" fill-rule="nonzero" node-id="298" stroke="none" target-height="114.899994" target-width="71.8" target-x="193.7" target-y="82.8"></path><path d="M 180.80 166.80 L 113.30 149.20 L 113.30 85.10 L 180.80 71.70 L 180.80 166.80 Z" fill="url(#未命名的渐变_13-3)" fill-rule="nonzero" node-id="300" stroke="none" target-height="95.100006" target-width="67.5" target-x="113.3" target-y="71.7"></path><path d="M 193.70 197.70 L 113.30 180.10 L 113.30 85.10 L 193.70 102.60 L 193.70 197.70 Z" fill="url(#未命名的渐变_13-4)" fill-rule="nonzero" node-id="302" stroke="none" target-height="112.6" target-width="80.399994" target-x="113.3" target-y="85.1"></path><path d="M 285.40 114.40 L 216.40 140.50 L 193.70 102.60 L 265.50 82.80 L 285.40 114.40 Z" fill="url(#未命名的渐变_13-5)" fill-rule="nonzero" node-id="304" stroke="none" target-height="57.699997" target-width="91.7" target-x="193.7" target-y="82.8"></path><path d="M 180.00 139.40 L 97.10 117.90 L 113.30 85.10 L 193.70 102.60 L 180.00 139.40 Z" fill="url(#未命名的渐变_13-6)" fill-rule="nonzero" node-id="306" stroke="none" target-height="54.299995" target-width="96.6" target-x="97.1" target-y="85.1"></path><path d="M 270.00 168.60 L 270.40 165.70 L 270.30 164.10 L 269.30 161.80 L 267.30 160.70 L 265.80 160.60 L 264.40 160.90 L 262.10 162.30 L 260.60 164.70 L 260.00 167.90 L 258.30 181.30 L 256.60 184.50 L 253.30 187.50 L 253.00 188.30 L 253.10 189.50 L 253.90 191.30 L 255.60 193.40 L 258.60 195.60 L 262.60 196.80 L 264.90 196.90 L 267.40 196.40 L 270.60 195.30 L 273.00 194.00 L 274.60 192.70 L 275.90 191.00 L 276.80 189.20 L 277.40 187.30 L 277.60 184.10 L 277.40 180.30 L 276.90 178.20 L 276.30 177.00 L 275.30 176.30 L 272.00 175.10 L 271.00 174.30 L 270.10 172.70 L 269.80 170.60 L 270.00 168.60 Z" fill="url(#未命名的渐变_13-7)" fill-rule="nonzero" node-id="308" stroke="none" target-height="36.299988" target-width="24.600006" target-x="253" target-y="160.6"></path><path d="M 264.90 189.70 L 266.60 188.40 L 267.90 186.70 L 268.90 184.70 L 269.50 182.50 L 268.30 186.80 L 267.10 188.80 L 265.50 190.50 Z" fill="url(#未命名的渐变_13-8)" fill-rule="nonzero" node-id="310" stroke="none" target-height="8" target-width="4.600006" target-x="264.9" target-y="182.5"></path><path d="M 265.00 176.50 L 264.40 178.80 L 264.00 183.50 L 264.20 185.30 L 265.90 190.50 L 266.50 194.10 L 265.80 204.90 L 265.00 205.00 L 264.90 201.40 L 265.50 194.20 L 265.10 190.70 L 263.60 185.40 L 263.50 183.60 L 264.10 178.70 L 264.90 176.40 Z" fill="url(#未命名的渐变_13-9)" fill-rule="nonzero" node-id="312" stroke="none" target-height="28.600006" target-width="3" target-x="263.5" target-y="176.4"></path><path d="M 254.70 185.60 L 254.90 182.80 L 254.10 181.20 L 253.00 180.70 L 251.70 180.70 L 250.50 181.20 L 249.60 182.00 L 249.00 183.20 L 248.40 186.10 L 247.50 193.40 L 246.00 195.90 L 244.30 197.40 L 244.30 198.50 L 244.80 199.60 L 245.80 200.80 L 247.20 201.90 L 248.90 202.70 L 250.90 203.00 L 253.10 202.70 L 255.10 202.00 L 257.60 200.40 L 258.70 198.80 L 259.30 197.10 L 259.30 192.80 L 258.60 190.80 L 255.40 189.10 L 254.60 186.80 L 254.70 185.60 Z" fill="url(#未命名的渐变_13-10)" fill-rule="nonzero" node-id="314" stroke="none" target-height="22.300003" target-width="14.999985" target-x="244.3" target-y="180.7"></path><path d="M 251.60 198.60 L 253.40 196.70 L 254.40 194.20 L 253.70 196.80 L 251.90 199.00 Z" fill="url(#未命名的渐变_13-11)" fill-rule="nonzero" node-id="316" stroke="none" target-height="4.800003" target-width="2.7999878" target-x="251.6" target-y="194.2"></path><path d="M 251.60 190.40 L 251.10 192.60 L 251.00 194.80 L 252.60 201.30 L 252.20 207.90 L 251.60 207.90 L 252.00 201.30 L 250.80 194.80 L 251.00 192.60 L 251.60 190.40 Z" fill="url(#未命名的渐变_13-12)" fill-rule="nonzero" node-id="318" stroke="none" target-height="17.5" target-width="1.800003" target-x="250.8" target-y="190.4"></path><path d="M 348.20 243.40 L 348.40 240.60 L 347.60 239.00 L 346.60 238.60 L 345.20 238.60 L 344.00 239.00 L 343.10 239.90 L 342.50 241.10 L 341.90 244.00 L 341.00 251.30 L 339.50 253.80 L 337.80 255.30 L 337.90 256.30 L 338.40 257.50 L 339.40 258.70 L 340.70 259.80 L 342.40 260.60 L 344.40 260.90 L 346.70 260.60 L 348.60 259.90 L 351.10 258.30 L 352.20 256.70 L 352.80 254.90 L 352.80 250.70 L 352.10 248.70 L 348.90 247.00 L 348.10 244.70 L 348.20 243.40 Z" fill="url(#未命名的渐变_13-13)" fill-rule="nonzero" node-id="320" stroke="none" target-height="22.299988" target-width="15" target-x="337.8" target-y="238.6"></path><path d="M 345.10 256.40 L 346.90 254.60 L 347.90 252.00 L 347.20 254.70 L 345.40 256.90 Z" fill="url(#未命名的渐变_13-14)" fill-rule="nonzero" node-id="322" stroke="none" target-height="4.899994" target-width="2.7999878" target-x="345.1" target-y="252"></path><path d="M 345.20 248.30 L 344.60 252.60 L 346.10 259.20 L 345.70 265.80 L 345.10 265.80 L 345.50 259.20 L 344.30 252.70 L 344.50 250.40 L 345.20 248.30 Z" fill="url(#未命名的渐变_13-15)" fill-rule="nonzero" node-id="324" stroke="none" target-height="17.499985" target-width="1.8000183" target-x="344.3" target-y="248.3"></path><path d="M 69.00 208.50 L 69.20 206.30 L 68.50 205.00 L 67.70 204.70 L 66.60 204.70 L 65.00 205.80 L 64.50 206.70 L 63.40 214.70 L 62.20 216.60 L 60.90 217.80 L 61.30 219.50 L 62.10 220.50 L 64.50 221.90 L 66.00 222.20 L 67.80 222.00 L 70.00 221.10 L 71.30 220.10 L 72.10 218.90 L 72.60 217.50 L 72.60 214.20 L 72.30 212.90 L 71.80 212.40 L 69.70 211.50 L 69.10 210.50 L 69.00 208.50 Z" fill="url(#未命名的渐变_13-16)" fill-rule="nonzero" node-id="326" stroke="none" target-height="17.5" target-width="11.699997" target-x="60.9" target-y="204.7"></path><path d="M 66.60 218.70 L 68.00 217.20 L 68.70 215.20 L 68.20 217.30 L 66.80 219.00 Z" fill="url(#未命名的渐变_13-17)" fill-rule="nonzero" node-id="328" stroke="none" target-height="3.800003" target-width="2.0999985" target-x="66.6" target-y="215.2"></path><path d="M 66.60 212.30 L 66.10 215.70 L 67.30 220.80 L 67.00 226.10 L 66.70 226.10 L 67.00 220.80 L 66.00 215.70 L 66.70 212.30 Z" fill="url(#未命名的渐变_13-18)" fill-rule="nonzero" node-id="330" stroke="none" target-height="13.800003" target-width="1.300003" target-x="66" target-y="212.3"></path><path d="M 56.80 195.20 L 57.10 192.00 L 56.10 190.10 L 54.90 189.60 L 53.40 189.60 L 52.00 190.20 L 50.90 191.10 L 50.20 192.50 L 49.70 194.80 L 48.50 204.30 L 47.80 205.90 L 46.80 207.20 L 45.00 208.60 L 44.80 209.20 L 45.40 211.40 L 46.60 212.80 L 48.10 214.10 L 51.60 215.30 L 55.00 215.00 L 57.30 214.20 L 60.10 212.40 L 61.10 211.20 L 62.10 208.50 L 62.10 203.60 L 61.30 201.20 L 57.60 199.30 L 57.00 198.20 L 56.70 196.70 L 56.80 195.20 Z" fill="url(#未命名的渐变_13-19)" fill-rule="nonzero" node-id="332" stroke="none" target-height="25.699997" target-width="17.3" target-x="44.8" target-y="189.6"></path><path d="M 53.20 210.20 L 55.30 208.10 L 56.50 205.20 L 55.60 208.20 L 53.60 210.80 Z" fill="url(#未命名的渐变_13-20)" fill-rule="nonzero" node-id="334" stroke="none" target-height="5.600006" target-width="3.2999992" target-x="53.2" target-y="205.2"></path><path d="M 53.30 200.80 L 52.70 203.30 L 52.60 205.80 L 54.00 210.80 L 54.40 213.40 L 53.90 221.00 L 53.30 221.00 L 53.70 213.40 L 52.30 205.90 L 52.50 203.30 L 53.30 200.80 Z" fill="url(#未命名的渐变_13-21)" fill-rule="nonzero" node-id="336" stroke="none" target-height="20.199997" target-width="2.1000023" target-x="52.3" target-y="200.8"></path></svg>